<svg viewBox="0 0 460 220" xmlns="http://www.w3.org/2000/svg" style="max-width: 130mm;">
  <line x1="90" y1="20" x2="90" y2="195" stroke="#000"/>
  <line x1="90" y1="195" x2="440" y2="195" stroke="#000"/>
  <g font-size="10"><text x="10" y="35">Apple</text><text x="10" y="65">Microsoft</text><text x="10" y="95">Alphabet</text><text x="10" y="125">Amazon</text><text x="10" y="155">Meta</text></g>
  <g><rect x="90" y="25"  width="220" height="10" fill="#444"/><rect x="90" y="37" width="310" height="10" fill="#999"/>
     <rect x="90" y="55"  width="190" height="10" fill="#444"/><rect x="90" y="67" width="300" height="10" fill="#999"/>
     <rect x="90" y="85"  width="230" height="10" fill="#444"/><rect x="90" y="97" width="160" height="10" fill="#999"/>
     <rect x="90" y="115" width="300" height="10" fill="#444"/><rect x="90" y="127" width="150" height="10" fill="#999"/>
     <rect x="90" y="145" width="105" height="10" fill="#444"/><rect x="90" y="157" width="100" height="10" fill="#999"/></g>
  <g font-size="9">
    <text x="315" y="33">385</text><text x="405" y="45">3,400</text>
    <text x="285" y="63">245</text><text x="395" y="75">3,200</text>
    <text x="325" y="93">310</text><text x="255" y="105">1,700</text>
    <text x="395" y="123">575</text><text x="245" y="135">1,600</text>
    <text x="200" y="153">135</text><text x="195" y="165">1,150</text>
  </g>
  <g font-size="9"><text x="340" y="215">■ Revenue</text><text x="400" y="215" fill="#777">■ Mkt cap</text></g>
</svg>