<svg viewBox="0 0 460 200" xmlns="http://www.w3.org/2000/svg" style="max-width: 130mm;">
  <g transform="translate(140 95)">
    <path d="M 0 0 L 0 -80 A 80 80 0 0 1 70 -38 Z" fill="#000"/>
    <path d="M 0 0 L 70 -38 A 80 80 0 0 1 65 47 Z" fill="#555"/>
    <path d="M 0 0 L 65 47 A 80 80 0 0 1 -45 66 Z" fill="#999"/>
    <path d="M 0 0 L -45 66 A 80 80 0 0 1 -78 -17 Z" fill="#bbb"/>
    <path d="M 0 0 L -78 -17 A 80 80 0 0 1 0 -80 Z" fill="#666"/>
  </g>
  <g font-size="10">
    <text x="270" y="35">Google (Search & YouTube) 42%</text>
    <text x="270" y="60">Meta (Facebook & Instagram) 27%</text>
    <text x="270" y="85">Amazon 18%</text>
    <text x="270" y="110">TikTok 7%</text>
    <text x="270" y="135">Others 6%</text>
  </g>
</svg>