<svg viewBox="0 0 460 220" xmlns="http://www.w3.org/2000/svg" style="max-width: 130mm;">
  <g transform="translate(120 110)">
    <path d="M 0 0 L 0 -90 A 90 90 0 0 1 78.0 -45 Z" fill="#111"/>
    <path d="M 0 0 L 78.0 -45 A 90 90 0 0 1 87.9 -19.6 Z" fill="#444"/>
    <path d="M 0 0 L 87.9 -19.6 A 90 90 0 0 1 85.6 27.9 Z" fill="#777"/>
    <path d="M 0 0 L 85.6 27.9 A 90 90 0 0 1 57.8 69.0 Z" fill="#aaa"/>
    <path d="M 0 0 L 57.8 69.0 A 90 90 0 0 1 0 90 Z" fill="#c8c8c8"/>
    <path d="M 0 0 L 0 90 A 90 90 0 0 1 -63.6 63.6 Z" fill="#e0e0e0"/>
    <path d="M 0 0 L -63.6 63.6 A 90 90 0 0 1 0 -90 Z" fill="#999"/>
  </g>
  <g font-size="10">
    <text x="260" y="40">Lloyds Group 22%</text>
    <text x="260" y="60">HSBC 14%</text>
    <text x="260" y="80">NatWest Group 15%</text>
    <text x="260" y="100">Barclays 15%</text>
    <text x="260" y="120">Santander UK 9%</text>
    <text x="260" y="140">Nationwide 9%</text>
    <text x="260" y="160">Challenger banks 16%</text>
  </g>
</svg>