<svg viewBox="0 0 420 180" xmlns="http://www.w3.org/2000/svg" style="max-width: 120mm;">
  <line x1="50" y1="20" x2="50" y2="150" stroke="#000"/>
  <line x1="50" y1="150" x2="400" y2="150" stroke="#000"/>
  <g font-size="9">
    <text x="15" y="25">12</text><text x="15" y="55">9</text>
    <text x="15" y="85">6</text><text x="15" y="115">3</text>
    <text x="25" y="155">0</text>
  </g>
  <g fill="#555">
    <rect x="70" y="145" width="30" height="5"/>
    <rect x="115" y="130" width="30" height="20"/>
    <rect x="160" y="108" width="30" height="42"/>
    <rect x="205" y="80" width="30" height="70"/>
    <rect x="250" y="60" width="30" height="90"/>
    <rect x="295" y="45" width="30" height="105"/>
    <rect x="340" y="30" width="30" height="120"/>
  </g>
  <g font-size="9">
    <text x="75" y="165">2018</text><text x="120" y="165">2019</text>
    <text x="165" y="165">2020</text><text x="210" y="165">2021</text>
    <text x="255" y="165">2022</text><text x="300" y="165">2023</text>
    <text x="345" y="165">2024</text>
  </g>
</svg>