<svg viewBox="0 0 460 180" xmlns="http://www.w3.org/2000/svg" style="max-width: 130mm;">
  <g font-size="10">
    <text x="10" y="35">Costa Coffee</text>
    <text x="10" y="65">Starbucks</text>
    <text x="10" y="95">Caffè Nero</text>
    <text x="10" y="125">Pret A Manger</text>
    <text x="10" y="155">Greggs Cafe</text>
  </g>
  <g>
    <rect x="90" y="25"  width="85"  height="8" fill="#999"/>
    <rect x="90" y="38"  width="125" height="8" fill="#444"/>
    <rect x="90" y="55"  width="95"  height="8" fill="#999"/>
    <rect x="90" y="68"  width="140" height="8" fill="#444"/>
    <rect x="90" y="85"  width="80"  height="8" fill="#999"/>
    <rect x="90" y="98"  width="120" height="8" fill="#444"/>
    <rect x="90" y="115" width="105" height="8" fill="#999"/>
    <rect x="90" y="128" width="150" height="8" fill="#444"/>
    <rect x="90" y="145" width="60"  height="8" fill="#999"/>
    <rect x="90" y="158" width="85"  height="8" fill="#444"/>
  </g>
  <g font-size="9">
    <text x="180" y="32">£2.85</text>
    <text x="220" y="45">£3.75</text>
    <text x="190" y="62">£2.95</text>
    <text x="235" y="75">£3.95</text>
    <text x="175" y="92">£2.80</text>
    <text x="215" y="105">£3.60</text>
    <text x="200" y="122">£3.20</text>
    <text x="245" y="135">£4.15</text>
    <text x="155" y="152">£2.20</text>
    <text x="180" y="165">£2.85</text>
  </g>
  <g font-size="9"><text x="300" y="22">■ 2020</text><text x="340" y="22" fill="#444">■ 2025</text></g>
</svg>