<svg viewBox="0 0 460 220" xmlns="http://www.w3.org/2000/svg" style="max-width: 130mm;">
  <g transform="translate(120 110)">
    <path d="M 0 0 L 0 -95 A 95 95 0 0 1 80 -50 Z" fill="#000"/>
    <path d="M 0 0 L 80 -50 A 95 95 0 0 1 95 20 Z" fill="#555"/>
    <path d="M 0 0 L 95 20 A 95 95 0 0 1 40 86 Z" fill="#999"/>
    <path d="M 0 0 L 40 86 A 95 95 0 0 1 -30 90 Z" fill="#bbb"/>
    <path d="M 0 0 L -30 90 A 95 95 0 0 1 -85 -45 Z" fill="#ddd"/>
    <path d="M 0 0 L -85 -45 A 95 95 0 0 1 0 -95 Z" fill="#777"/>
  </g>
  <g font-size="10">
    <text x="250" y="50">Costa Coffee 33%</text>
    <text x="250" y="75">Starbucks 21%</text>
    <text x="250" y="100">Caffè Nero 13%</text>
    <text x="250" y="125">Greggs Cafe 9%</text>
    <text x="250" y="150">Pret A Manger 8%</text>
    <text x="250" y="175">Others 16%</text>
  </g>
</svg>