<svg viewBox="0 0 420 260" xmlns="http://www.w3.org/2000/svg" style="max-width: 105mm;">
  <line x1="60" y1="20" x2="60" y2="230" stroke="#000"/>
  <line x1="60" y1="230" x2="400" y2="230" stroke="#000"/>
  <text x="15" y="25" font-size="11">Price (£)</text>
  <text x="280" y="250" font-size="11">Quantity (bn litres)</text>
  <line x1="80" y1="50" x2="380" y2="210" stroke="#000" stroke-width="1.2"/>
  <text x="385" y="215" font-size="12" font-weight="bold">D</text>
  <line x1="80" y1="200" x2="380" y2="60" stroke="#000" stroke-width="1.2"/>
  <text x="385" y="60" font-size="12" font-weight="bold">S</text>
  <line x1="110" y1="180" x2="380" y2="40" stroke="#000" stroke-width="1.2" stroke-dasharray="3,3"/>
  <text x="385" y="40" font-size="12" font-weight="bold">S+tax</text>
  <line x1="60" y1="120" x2="230" y2="120" stroke="#000" stroke-dasharray="2,2"/>
  <line x1="230" y1="120" x2="230" y2="230" stroke="#000" stroke-dasharray="2,2"/>
  <text x="30" y="124" font-size="10">£1.20</text>
  <line x1="60" y1="100" x2="210" y2="100" stroke="#000" stroke-dasharray="2,2"/>
  <line x1="210" y1="100" x2="210" y2="230" stroke="#000" stroke-dasharray="2,2"/>
  <text x="30" y="104" font-size="10">£1.32</text>
  <line x1="60" y1="140" x2="210" y2="140" stroke="#000" stroke-dasharray="2,2"/>
  <text x="30" y="144" font-size="10">£1.14</text>
  <text x="225" y="245" font-size="10">3.6</text>
  <text x="205" y="245" font-size="10">4.0</text>
</svg>