<svg viewBox="0 0 460 220" xmlns="http://www.w3.org/2000/svg" style="max-width: 130mm;">
  <line x1="50" y1="20" x2="50" y2="180" stroke="#000"/>
  <line x1="50" y1="100" x2="440" y2="100" stroke="#000" stroke-width="0.5"/>
  <line x1="50" y1="180" x2="440" y2="180" stroke="#000"/>
  <g font-size="9">
    <text x="20" y="25">20%</text><text x="20" y="65">12%</text>
    <text x="25" y="105">0</text><text x="20" y="145">−8%</text>
  </g>
  <polyline fill="none" stroke="#000" stroke-width="1.8"
    points="55,50 95,45 135,40 175,40 215,45 255,55 295,85 335,120 375,135 415,140"/>
  <polyline fill="none" stroke="#000" stroke-width="1.6" stroke-dasharray="4,3"
    points="55,95 95,85 135,80 175,75 215,80 255,90 295,115 335,140 375,155 415,160"/>
  <text x="420" y="50" font-size="9">Invest.</text>
  <text x="420" y="160" font-size="9">Prices</text>
  <g font-size="9">
    <text x="55" y="200">2015</text><text x="175" y="200">2018</text>
    <text x="295" y="200">2021</text><text x="395" y="200">2024</text>
  </g>
</svg>