<svg viewBox="0 0 460 230" xmlns="http://www.w3.org/2000/svg" style="max-width: 130mm;">
  <line x1="60" y1="20" x2="60" y2="200" stroke="#000"/>
  <line x1="60" y1="200" x2="440" y2="200" stroke="#000"/>
  <g font-size="9">
    <text x="30" y="25">40%</text><text x="30" y="65">30%</text>
    <text x="30" y="105">20%</text><text x="30" y="145">10%</text>
    <text x="45" y="205">0</text>
  </g>
  <g fill="#222">
    <rect x="85" y="175" width="20" height="25"/>
    <rect x="115" y="195" width="20" height="5"/>
    <rect x="175" y="130" width="20" height="70"/>
    <rect x="205" y="180" width="20" height="20"/>
    <rect x="265" y="85" width="20" height="115"/>
    <rect x="295" y="170" width="20" height="30"/>
    <rect x="355" y="65" width="20" height="135"/>
    <rect x="385" y="140" width="20" height="60"/>
  </g>
  <g font-size="9">
    <text x="75" y="220">Low-skill</text>
    <text x="170" y="220">Mid-routine</text>
    <text x="260" y="220">High-skill</text>
    <text x="340" y="220">Professional</text>
  </g>
  <g font-size="8" transform="translate(345 15)">
    <rect x="0" y="0" width="10" height="8" fill="#222"/><text x="14" y="8">AI exposure</text>
    <rect x="0" y="12" width="10" height="8" fill="#888"/><text x="14" y="20">Prod. gain</text>
  </g>
  <g fill="#888">
    <rect x="115" y="192" width="20" height="8"/>
    <rect x="205" y="178" width="20" height="22"/>
    <rect x="295" y="165" width="20" height="35"/>
    <rect x="385" y="138" width="20" height="62"/>
  </g>
</svg>