<svg viewBox="0 0 460 210" xmlns="http://www.w3.org/2000/svg" style="max-width: 130mm;">
  <line x1="50" y1="20" x2="50" y2="180" stroke="#000"/>
  <line x1="50" y1="180" x2="440" y2="180" stroke="#000"/>
  <g font-size="9">
    <text x="20" y="25">600</text><text x="20" y="65">450</text>
    <text x="20" y="105">300</text><text x="20" y="145">150</text>
    <text x="25" y="185">0</text>
  </g>
  <polyline fill="none" stroke="#000" stroke-width="1.8"
    points="55,145 100,148 145,145 190,140 235,110 280,60 325,35 370,85 410,115"/>
  <text x="415" y="35" font-size="9">Lithium</text>
  <polyline fill="none" stroke="#000" stroke-width="1.6" stroke-dasharray="4,3"
    points="55,148 100,145 145,140 190,125 235,95 280,75 325,85 370,110 410,125"/>
  <text x="415" y="85" font-size="9">Cobalt</text>
  <polyline fill="none" stroke="#555" stroke-width="1.4" stroke-dasharray="1,3"
    points="55,150 100,148 145,140 190,135 235,125 280,110 325,105 370,115 410,120"/>
  <text x="415" y="115" font-size="9">Copper</text>
  <g font-size="9">
    <text x="55" y="200">'15</text><text x="145" y="200">'17</text>
    <text x="235" y="200">'19</text><text x="325" y="200">'21</text>
    <text x="410" y="200">'24</text>
  </g>
</svg>