<svg viewBox="0 0 460 240" xmlns="http://www.w3.org/2000/svg" style="max-width: 130mm;">
  <line x1="50" y1="20" x2="50" y2="200" stroke="#000"/>
  <line x1="50" y1="200" x2="440" y2="200" stroke="#000"/>
  <g font-size="9">
    <text x="30" y="25">8%</text><text x="30" y="65">6%</text>
    <text x="30" y="105">4%</text><text x="30" y="145">2%</text>
    <text x="35" y="205">0</text>
  </g>
  <polyline fill="none" stroke="#000" stroke-width="1.8"
    points="60,120 110,165 165,70 220,45 275,55 330,80 385,95"/>
  <text x="390" y="95" font-size="9">Wage gr.</text>
  <polyline fill="none" stroke="#000" stroke-width="1.6" stroke-dasharray="4,3"
    points="60,140 110,125 165,100 220,90 275,100 330,115 385,120"/>
  <text x="390" y="115" font-size="9">U-rate</text>
  <polyline fill="none" stroke="#000" stroke-width="1.4" stroke-dasharray="1,3"
    points="60,160 110,175 165,75 220,60 275,75 330,100 385,115"/>
  <text x="390" y="130" font-size="9">Vacancies</text>
  <g font-size="9">
    <text x="60" y="220">2019</text><text x="115" y="220">2020</text>
    <text x="170" y="220">2021</text><text x="225" y="220">2022</text>
    <text x="280" y="220">2023</text><text x="335" y="220">2024</text>
    <text x="385" y="220">2025</text>
  </g>
</svg>