<svg xmlns="http://www.w3.org/2000/svg" viewBox="0 0 620 480" font-family="Inter, Arial, sans-serif">
  <rect width="620" height="480" fill="#ffffff"/>
  <text x="310" y="28" text-anchor="middle" font-size="17" font-weight="700" fill="#0f172a">Negative Consumption Externality · HFSS Foods &amp; NHS Wales</text>

  <line x1="90" y1="410" x2="600" y2="410" stroke="#0f172a" stroke-width="2"/>
  <line x1="90" y1="60" x2="90" y2="410" stroke="#0f172a" stroke-width="2"/>
  <text x="555" y="430" font-size="12" fill="#0f172a">Output (Q)</text>
  <text x="60" y="55" font-size="12" fill="#0f172a">Costs /</text>
  <text x="60" y="70" font-size="12" fill="#0f172a">Benefits</text>

  <line x1="130" y1="390" x2="540" y2="120" stroke="#ca8a04" stroke-width="2.6"/>
  <text x="545" y="125" font-size="11" font-weight="600" fill="#ca8a04">MPC = MSC</text>

  <line x1="130" y1="130" x2="500" y2="390" stroke="#15803d" stroke-width="2.6"/>
  <text x="505" y="395" font-size="11" font-weight="600" fill="#15803d">MPB</text>

  <line x1="130" y1="200" x2="460" y2="390" stroke="#be123c" stroke-width="2.6"/>
  <text x="465" y="395" font-size="11" font-weight="600" fill="#be123c">MSB</text>

  <defs>
    <marker id="arrWJX1" viewBox="0 0 10 10" refX="8" refY="5" markerWidth="5" markerHeight="5" orient="auto"><path d="M0,0 L10,5 L0,10 z" fill="#7c3aed"/></marker>
    <marker id="arrWJX2" viewBox="0 0 10 10" refX="2" refY="5" markerWidth="5" markerHeight="5" orient="auto"><path d="M10,0 L0,5 L10,10 z" fill="#7c3aed"/></marker>
  </defs>
  <line x1="420" y1="323" x2="420" y2="358" stroke="#7c3aed" stroke-width="1.5" marker-start="url(#arrWJX2)" marker-end="url(#arrWJX1)"/>
  <text x="428" y="345" font-size="10" font-weight="700" fill="#7c3aed">MEC</text>

  <circle cx="321" cy="264" r="5" fill="#15803d"/>
  <line x1="90" y1="264" x2="321" y2="264" stroke="#15803d" stroke-dasharray="3,3" stroke-width="1.2"/>
  <line x1="321" y1="264" x2="321" y2="410" stroke="#15803d" stroke-dasharray="3,3" stroke-width="1.2"/>
  <text x="68" y="268" font-size="11" font-weight="700" fill="#15803d">Pe</text>
  <text x="321" y="425" text-anchor="middle" font-size="11" font-weight="700" fill="#15803d">Qe</text>

  <circle cx="284" cy="289" r="5" fill="#be123c"/>
  <line x1="90" y1="289" x2="284" y2="289" stroke="#be123c" stroke-dasharray="3,3" stroke-width="1.2"/>
  <line x1="284" y1="289" x2="284" y2="410" stroke="#be123c" stroke-dasharray="3,3" stroke-width="1.2"/>
  <text x="68" y="293" font-size="11" font-weight="700" fill="#be123c">Po</text>
  <text x="284" y="440" text-anchor="middle" font-size="11" font-weight="700" fill="#be123c">Qo</text>

  <polygon points="284,289 321,264 321,310" fill="#fecaca" fill-opacity="0.75" stroke="#991b1b" stroke-width="1.5"/>

  <line x1="370" y1="300" x2="325" y2="288" stroke="#991b1b" stroke-width="1.3"/>
  <text x="375" y="298" font-size="11" font-weight="700" fill="#991b1b">Welfare Loss</text>

  <text x="310" y="465" text-anchor="middle" font-size="11" fill="#334155">HFSS → external cost to NHS Wales. MSB &lt; MPB → market over-consumes (Qe &gt; Qo). DWL triangle = welfare loss.</text>
</svg>
